<?xml version="1.0" encoding="UTF-8"?>
<svg xmlns="http://www.w3.org/2000/svg" xmlns:xlink="http://www.w3.org/1999/xlink" width="150px" height="150px" viewBox="0 0 45 45" version="1.1">
<g id="surface1">
<path style=" stroke:none;fill-rule:evenodd;fill:rgb(12.941177%,58.823532%,32.549021%);fill-opacity:1;" d="M 9.769531 17.992188 C 11.625 12.753906 16.628906 9 22.5 9 L 36.007812 9 L 36.007812 22.507812 C 36.007812 29.960938 29.953125 36.015625 22.5 36.015625 L 18.015625 36.015625 L 18.015625 45.007812 L 22.5 45.007812 C 34.921875 45.007812 45 34.929688 45 22.507812 L 45 0 L 22.5 0 C 10.078125 0 0 10.078125 0 22.5 L 0 45 L 8.992188 45 L 8.992188 27.007812 L 22.5 27.007812 C 24.996094 27.007812 27.015625 24.988281 27.015625 22.492188 L 27.015625 17.976562 L 9.769531 17.976562 Z M 9.769531 17.992188 "/>
</g>
</svg>
